<svg xmlns="http://www.w3.org/2000/svg" width="486" height="816" fill="none" viewBox="0 0 486 816">
  <rect width="86" height="95.901" x="1.093" y="549.704" fill="#9EC71E" rx="11" transform="rotate(-69.6 1.093 549.704)"/>
  <rect width="86" height="95.901" x="35.951" y="455.976" fill="#fff" rx="11" transform="rotate(-69.6 35.95 455.976)"/>
  <rect width="86" height="95.901" x="70.808" y="362.248" fill="#9EC71E" rx="11" transform="rotate(-69.6 70.808 362.248)"/>
  <rect width="86" height="95.901" x="105.666" y="268.52" fill="#9EC71E" rx="11" transform="rotate(-69.6 105.666 268.52)"/>
  <rect width="86" height="95.901" x="140.524" y="174.791" fill="#F9FBFC" rx="11" transform="rotate(-69.6 140.524 174.791)"/>
  <rect width="86" height="95.901" x="175.382" y="81.063" fill="#9EC71E" rx="11" transform="rotate(-69.6 175.382 81.063)"/>
  <path stroke="#3F3F3F" stroke-linecap="round" stroke-linejoin="round" stroke-miterlimit="10" stroke-width="3.5" d="m15.335 511.41 11.024-29.643c1.644-4.42 6.38-6.736 10.578-5.175l58.535 21.769c4.198 1.561 6.27 6.41 4.626 10.829l-22.914 61.613c-1.643 4.419-6.38 6.736-10.578 5.175L8.072 554.209c-4.199-1.561-6.27-6.41-4.627-10.829l5.938-15.965m106.552-60.809-3.883 10.441c-1.643 4.419-6.379 6.736-10.578 5.175L42.94 460.453c-4.199-1.562-6.27-6.41-4.627-10.83l22.914-61.613c1.644-4.419 6.38-6.736 10.578-5.174l58.535 21.769c4.198 1.561 6.27 6.409 4.626 10.829l-13.078 35.167m82.94-222.631-22.914 61.613c-1.643 4.419-6.379 6.736-10.578 5.175l-58.534-21.769c-4.199-1.561-6.27-6.41-4.626-10.829l22.914-61.613c1.643-4.419 6.379-6.736 10.578-5.175l58.534 21.769c4.199 1.562 6.27 6.41 4.626 10.829Zm-34.994 93.707L146.92 383.29c-1.643 4.42-6.379 6.736-10.578 5.175l-58.534-21.769c-4.199-1.561-6.27-6.41-4.626-10.829l22.914-61.613c1.643-4.419 6.379-6.736 10.578-5.175l58.534 21.769c4.199 1.562 6.27 6.41 4.626 10.829Z"/>
  <path stroke="#3F3F3F" stroke-linecap="round" stroke-linejoin="round" stroke-miterlimit="10" stroke-width="3.5" d="m136.342 388.465 15.206 5.655c4.198 1.562 8.934-.755 10.578-5.174l22.914-61.613c1.643-4.42-.428-9.268-4.626-10.83l-15.206-5.655m-63.734 171.374 15.206 5.655c4.198 1.561 8.934-.756 10.578-5.175l22.914-61.613c1.643-4.419-.428-9.268-4.626-10.829l-15.206-5.655m85.753-160.383 3.941-10.597c1.643-4.419-.428-9.267-4.626-10.829l-15.206-5.655m-28.866 77.617 15.206 5.655c4.198 1.562 8.934-.755 10.578-5.174l13.021-35.011M66.606 575.978l15.206 5.655c4.198 1.561 8.934-.756 10.578-5.175l22.914-61.613c1.643-4.419-.428-9.267-4.626-10.829l-15.206-5.655m59.539-361.882 11.025-29.642c1.643-4.42 6.379-6.736 10.578-5.175l58.534 21.769c4.198 1.561 6.27 6.409 4.626 10.829l-22.914 61.613c-1.643 4.419-6.379 6.736-10.578 5.175l-58.534-21.769c-4.199-1.562-6.27-6.41-4.626-10.829l5.937-15.965m106.552-60.809-3.883 10.441c-1.643 4.419-6.379 6.736-10.578 5.175l-58.534-21.77c-4.198-1.56-6.27-6.41-4.626-10.829l22.914-61.612c1.643-4.42 6.379-6.737 10.578-5.175l58.534 21.769c4.199 1.561 6.27 6.41 4.626 10.829l-13.078 35.167"/>
  <path stroke="#3F3F3F" stroke-linecap="round" stroke-linejoin="round" stroke-miterlimit="10" stroke-width="3.5" d="m241.15 107.291 15.206 5.655c4.199 1.562 8.935-.755 10.578-5.174l22.914-61.614c1.644-4.419-.428-9.267-4.626-10.829l-15.206-5.655m-63.734 171.374 15.206 5.655c4.198 1.561 8.935-.756 10.578-5.175l22.914-61.613c1.643-4.419-.428-9.268-4.626-10.829l-15.206-5.655"/>
  <rect width="86" height="95.901" x="157.658" y="780.771" fill="#9EC71E" rx="11" transform="rotate(-69.6 157.658 780.771)"/>
  <rect width="86" height="95.901" x="192.515" y="687.043" fill="#9EC71E" rx="11" transform="rotate(-69.6 192.515 687.043)"/>
  <rect width="86" height="95.901" x="227.373" y="593.315" fill="#9EC71E" rx="11" transform="rotate(-69.6 227.373 593.315)"/>
  <rect width="86" height="94.888" x="262.368" y="498.606" fill="#9EC71E" rx="8" transform="rotate(-69.6 262.368 498.606)"/>
  <rect width="86" height="94.888" x="366.804" y="218.401" fill="#9EC71E" rx="8" transform="rotate(-69.6 366.804 218.401)"/>
  <path stroke="#3F3F3F" stroke-linecap="round" stroke-linejoin="round" stroke-miterlimit="10" stroke-width="3.5" d="m171.9 742.477 11.024-29.643c1.644-4.42 6.379-6.736 10.578-5.175l58.534 21.769c4.199 1.562 6.27 6.41 4.627 10.829l-22.914 61.613c-1.644 4.42-6.38 6.736-10.578 5.175l-58.535-21.769c-4.198-1.561-6.27-6.41-4.626-10.829l5.937-15.965M272.5 697.673l-3.883 10.441c-1.644 4.419-6.38 6.736-10.578 5.175l-58.535-21.769c-4.198-1.562-6.27-6.41-4.626-10.829l22.914-61.613c1.644-4.42 6.379-6.737 10.578-5.175l58.534 21.769c4.199 1.561 6.27 6.409 4.627 10.829l-13.079 35.167m47.947-128.924-22.914 61.613c-1.644 4.42-6.38 6.737-10.578 5.175l-58.535-21.769c-4.198-1.561-6.269-6.41-4.626-10.829l22.914-61.613c1.644-4.419 6.38-6.736 10.578-5.175l58.535 21.769c4.198 1.562 6.269 6.41 4.626 10.829Z"/>
  <path stroke="#3F3F3F" stroke-linecap="round" stroke-linejoin="round" stroke-miterlimit="10" stroke-width="3.5" d="m292.907 619.532 15.206 5.655c4.198 1.562 8.934-.755 10.578-5.174l22.913-61.614c1.644-4.419-.427-9.267-4.626-10.829l-15.205-5.655m-63.734 171.374 15.205 5.655c4.199 1.561 8.935-.756 10.578-5.175l22.914-61.613c1.644-4.419-.427-9.268-4.626-10.829l-15.205-5.655m-63.734 171.373 15.205 5.655c4.199 1.561 8.935-.756 10.578-5.175l22.914-61.613c1.644-4.419-.428-9.268-4.626-10.829l-15.206-5.655m90.562-220.208-3.883 10.441c-1.644 4.419-6.38 6.736-10.578 5.174l-58.535-21.769c-4.198-1.561-6.27-6.41-4.626-10.829l22.914-61.613c1.644-4.42 6.38-6.736 10.578-5.175l58.534 21.77c4.199 1.561 6.27 6.409 4.627 10.829l-13.079 35.166m117.524-315.398-22.914 61.613c-1.643 4.419-6.379 6.736-10.578 5.174l-58.534-21.769c-4.198-1.561-6.27-6.41-4.626-10.829l22.914-61.613c1.643-4.419 6.379-6.736 10.578-5.174l58.534 21.769c4.199 1.561 6.27 6.41 4.626 10.829Z"/>
  <path stroke="#3F3F3F" stroke-linecap="round" stroke-linejoin="round" stroke-miterlimit="10" stroke-width="3.5" d="m432.582 244.603 15.206 5.655c4.199 1.562 8.935-.755 10.578-5.174l22.914-61.613c1.644-4.419-.428-9.268-4.626-10.829l-15.206-5.655M328.137 524.835l15.205 5.655c4.199 1.562 8.935-.755 10.578-5.175l22.914-61.613c1.644-4.419-.427-9.267-4.626-10.829l-15.206-5.655"/>
  <rect width="86" height="95.901" x="78.69" y="663.916" fill="#9EC71E" rx="11" transform="rotate(-69.6 78.69 663.916)"/>
  <rect width="86" height="95.901" x="113.547" y="570.188" fill="#9EC71E" rx="11" transform="rotate(-69.6 113.547 570.188)"/>
  <rect width="86" height="95.901" x="148.405" y="476.46" fill="#9EC71E" rx="11" transform="rotate(-69.6 148.405 476.46)"/>
  <rect width="86" height="95.901" x="183.263" y="382.732" fill="#9EC71E" rx="11" transform="rotate(-69.6 183.263 382.732)"/>
  <rect width="86" height="95.901" x="218.12" y="289.004" fill="#9EC71E" rx="11" transform="rotate(-69.6 218.12 289.004)"/>
  <path stroke="#3F3F3F" stroke-linecap="round" stroke-linejoin="round" stroke-miterlimit="10" stroke-width="3.5" d="m92.932 625.621 11.024-29.642c1.644-4.42 6.38-6.737 10.578-5.175l58.535 21.769c4.198 1.561 6.269 6.409 4.626 10.829l-22.914 61.613c-1.644 4.419-6.38 6.736-10.578 5.175l-58.535-21.769c-4.198-1.562-6.27-6.41-4.626-10.829l5.938-15.965m106.552-60.809-3.883 10.441c-1.644 4.419-6.38 6.736-10.578 5.175l-58.535-21.77c-4.198-1.561-6.269-6.409-4.626-10.829l22.914-61.613c1.644-4.419 6.38-6.736 10.578-5.174l58.535 21.769c4.198 1.561 6.27 6.409 4.626 10.829l-13.079 35.167m82.941-222.631-22.914 61.613c-1.643 4.419-6.38 6.736-10.578 5.175l-58.534-21.769c-4.199-1.562-6.27-6.41-4.627-10.829l22.914-61.613c1.644-4.419 6.38-6.736 10.578-5.175l58.535 21.769c4.198 1.561 6.27 6.41 4.626 10.829Zm-34.994 93.707-22.914 61.613c-1.643 4.419-6.38 6.736-10.578 5.175l-58.535-21.769c-4.198-1.562-6.269-6.41-4.626-10.829l22.914-61.613c1.644-4.419 6.38-6.736 10.578-5.175l58.535 21.769c4.198 1.561 6.269 6.41 4.626 10.829Z"/>
  <path stroke="#3F3F3F" stroke-linecap="round" stroke-linejoin="round" stroke-miterlimit="10" stroke-width="3.5" d="m213.939 502.677 15.206 5.655c4.198 1.561 8.934-.756 10.578-5.175l22.914-61.613c1.643-4.419-.428-9.267-4.627-10.829l-15.205-5.655m-63.734 171.373 15.206 5.655c4.198 1.562 8.934-.755 10.578-5.174l22.914-61.613c1.643-4.42-.428-9.268-4.627-10.83l-15.205-5.655m85.753-160.382 3.941-10.597c1.643-4.419-.428-9.268-4.626-10.829l-15.206-5.655m-28.866 77.617 15.206 5.655c4.198 1.561 8.934-.756 10.578-5.175l13.02-35.011M144.203 690.19l15.206 5.655c4.198 1.561 8.934-.756 10.578-5.175l22.913-61.613c1.644-4.419-.427-9.268-4.626-10.829l-15.205-5.655m59.538-361.881 11.025-29.643c1.643-4.419 6.379-6.736 10.578-5.174l58.534 21.769c4.199 1.561 6.27 6.409 4.626 10.829l-22.914 61.613c-1.643 4.419-6.379 6.736-10.578 5.175l-58.534-21.769c-4.199-1.562-6.27-6.41-4.626-10.83l5.937-15.964"/>
  <path stroke="#3F3F3F" stroke-linecap="round" stroke-linejoin="round" stroke-miterlimit="10" stroke-width="3.5" d="m283.878 315.261 15.206 5.655c4.198 1.561 8.935-.756 10.578-5.175l22.914-61.613c1.644-4.419-.428-9.268-4.626-10.829l-15.206-5.655"/>
  <path fill="#000" fill-opacity=".63" d="M159.724 521.989c-4.468.92-8.421 2.877-11.859 5.87-3.438 2.994-5.903 6.696-7.395 11.108-1.493 4.412-1.779 8.847-.861 13.304.918 4.458 2.875 8.4 5.872 11.829 2.998 3.429 6.706 5.885 11.125 7.37 5.308 1.784 10.605 1.842 15.891.174 5.285-1.668 9.571-4.677 12.855-9.027.299-.534.367-.981.207-1.341a1.31 1.31 0 0 0-.813-.731l-1.718-.559a308.18 308.18 0 0 1-2.828-.933l-.12.771c-.072.493-.234 1.091-.483 1.795a14.13 14.13 0 0 1-.967 2.125 5.181 5.181 0 0 1-1.668 1.802 4.262 4.262 0 0 1-2.422.738l-.837.071c-.557.048-1.209.199-1.954.454-.746.255-1.303.579-1.671.972l-.234.169c-.156.112-.33.206-.521.283-.19.077-.37.122-.54.136-.17.013-.274-.08-.312-.281-.038-.202.019-.523.169-.966l.309-.601c.227-.394.657-.831 1.291-1.312a5.413 5.413 0 0 1 2.168-.982c1.032-.194 1.891-.557 2.578-1.091.686-.533 1.147-1.148 1.383-1.844.235-.697.386-1.316.452-1.858.065-.542.067-1.07.006-1.585-1.353-.666-2.267-1.549-2.743-2.649-.534 1.16-1.09 2.178-1.669 3.053s-1.326 1.729-2.244 2.561c-.917.832-1.913 1.443-2.987 1.835-1.074.391-2.372.572-3.893.543-1.521-.03-3.18-.346-4.977-.95-2.56-.86-4.455-2.426-5.689-4.698-2.188.135-4.32-.663-6.396-2.395.017-.676.467-1.536 1.349-2.579.883-1.044 1.589-1.788 2.116-2.234a30.05 30.05 0 0 1 1.311-1.058 23.695 23.695 0 0 1 1.232-6.356 23.728 23.728 0 0 1 2.881-5.803l-.354-1.459c-.23-.993-.366-2.121-.411-3.382-.045-1.26.128-2.155.519-2.682 2.711-.147 4.896.493 6.556 1.921 2.362-1.063 4.822-1.166 7.381-.306 1.797.604 3.315 1.356 4.554 2.253 1.239.898 2.16 1.83 2.763 2.797.604.967 1.018 2.058 1.242 3.274.225 1.215.301 2.347.231 3.392a22.811 22.811 0 0 1-.526 3.437c1.322-.777 3.009-.821 5.06-.132l6.693 2.249c.38.127.742.102 1.085-.077.343-.179.558-.57.645-1.176.028-5.445-1.555-10.425-4.749-14.942-3.194-4.517-7.445-7.667-12.753-9.451-4.419-1.484-8.863-1.765-13.33-.846ZM95.93 432.022c2.892-.467 5.289-1.563 6.393-4.625.927-2.572.092-4.726-1.881-5.433-2.364-.846-3.81.542-6.206 2.881l-1.299 1.287c-3.734 3.72-7.462 5.745-13.075 3.735-5.17-1.851-7.828-6.808-5.83-12.352 1.423-3.947 3.972-6.238 8.703-6.852l1.705 6.068c-2.504.305-3.752 1.154-4.395 2.937-.655 1.818.21 3.429 1.884 4.029 2.068.74 3.321-.113 5.562-2.318l1.298-1.287c4.413-4.375 8.047-6.436 13.805-4.374 6.207 2.223 8.025 7.831 5.899 13.727-2.078 5.765-6.471 8.397-11.127 8.787l-1.437-6.21Zm-7.308 22.143c2.273-.287 4.217-.593 4.986-2.726.735-2.039.313-3.643-3.133-4.877l-23.442-8.395 2.237-6.208 23.536 8.429c7.138 2.556 9.029 7.488 7.046 12.989-1.791 4.97-5.686 6.826-9.654 7.057l-1.576-6.269Zm107.28-25.329c-3.45-1.313-7.342.458-8.679 3.948-1.336 3.49.383 7.396 3.832 8.708 2.909 1.106 6.135.019 7.875-2.442l.198.076c2.587.984 3.876 3.914 2.874 6.53l-4.846 12.656a8.493 8.493 0 0 0-.251 5.343l-6.457-2.457c.348-2.99-1.33-5.943-4.239-7.05-3.45-1.312-7.342.458-8.679 3.948-1.336 3.49.383 7.396 3.832 8.708 2.909 1.107 6.135.019 7.875-2.442l12.906 4.91c-.348 2.991 1.33 5.944 4.239 7.05 3.45 1.313 7.342-.458 8.678-3.948 1.337-3.49-.382-7.396-3.832-8.708-2.908-1.106-6.134-.019-7.874 2.442l-.198-.076c-2.587-.984-3.876-3.914-2.874-6.53l4.846-12.656c1.67-4.362-.478-9.245-4.79-10.885l-.198-.076c.348-2.99-1.329-5.943-4.238-7.049Zm-15.086-302.652-14.275 38.851c-.342.93.082 1.877.916 2.088l35.652 8.994c.833.211 1.969-.286 2.518-1.109l8.496-12.763c.546-.822 1.089-2.294 1.206-3.274l1.794-15.23c.115-.982-.422-2.09-1.196-2.466l-33.058-16.098c-.774-.375-1.71.072-2.053 1.007Zm9.923 11.265c.005.003.007.009.006.015-.002.007-.006.012-.012.012l-.148 12.377c-.002.176.108.317.263.337.155.02.312-.088.374-.256l3.132-8.526c.167-.453.492-.824.894-1.021.403-.197.846-.201 1.217-.01l10.304 5.273c.505.259.804.835.767 1.481l-.575 10.053c-.021.378-.157.75-.385 1.055l-6.003 8.022c-.39.521-.994.772-1.55.643l-5.11-1.181a.886.886 0 0 1-.608-.521 1.211 1.211 0 0 1-.014-.893l.921-2.507c.198-.538.715-.862 1.198-.75l3.141.727 4.163-5.552.413-6.955-5.95-3.042-6.508 17.713c-.197.537-.712.861-1.194.751l-2.765-.627c-.422-.096-.709-.499-.704-.989l.128-12.81c.002-.146-.089-.262-.217-.278-.128-.016-.256.073-.308.212l-4.385 11.935c-.132.36-.477.575-.799.5l-2.966-.691a.592.592 0 0 1-.404-.348.803.803 0 0 1-.009-.595l9.176-24.974a.802.802 0 0 1 .395-.449.592.592 0 0 1 .536-.002l3.586 1.871Z"/>
  <path fill="#000" fill-opacity=".6" d="M151.028 218.675c-.927-.238-1.93.033-2.647.729l-7.535 7.331a2.966 2.966 0 0 0-.668 3.261l9.837 20.162-9.826 5.858-.868.511a1.987 1.987 0 0 0-.992 1.756l.054 3.765a1.853 1.853 0 0 0 1.172 1.712l18.532 7.032a1.86 1.86 0 0 0 2.016-.502l2.575-2.768c.491-.53.657-1.294.428-1.97l-.328-.965-3.432-10.888 20.797-8.538c.027-.012.052-.026.077-.039a2.973 2.973 0 0 0 1.599-2.838l-.737-10.47a2.788 2.788 0 0 0-1.762-2.42l-28.01-10.628a3.077 3.077 0 0 0-.282-.091Zm5.807 45.46-11.906-4.518 8.083-3.318 3.823 7.836Zm.097-18.103-4.569-14.503 17.657 6.7-13.088 7.803Z"/>
  <path fill="#000" fill-opacity=".6" d="m140.189 256.016-.868.511a1.99 1.99 0 0 0-.993 1.756 1.983 1.983 0 0 1 .972-1.764l.889-.503Zm39.403-26.502a2.783 2.783 0 0 1 1.495 2.3l.732 10.468-.737-10.469a2.793 2.793 0 0 0-1.49-2.299Zm-31.212-10.109-7.534 7.331 7.529-7.333a2.797 2.797 0 0 1 2.651-.727 2.804 2.804 0 0 0-2.646.729Z"/>
  <path fill="#000" fill-opacity=".63" d="M139.427 658.552c-1.598-.583-2.877-1.84-3.555-3.492-.678-1.653-.699-3.567-.059-5.321l2.413-6.613 6.027 2.199c1.599.583 2.878 1.839 3.555 3.492.678 1.653.699 3.567.06 5.321-.64 1.754-1.889 3.204-3.472 4.032-1.583.828-3.37.965-4.969.382Zm-3.614-8.813 2.413-6.613-12.054-4.398-2.413 6.613c-.64 1.754-.619 3.668.059 5.321.677 1.652 1.956 2.908 3.555 3.492 1.598.583 3.386.445 4.968-.382 1.583-.828 2.832-2.279 3.472-4.033Zm-12.054-4.398 2.413-6.613-12.055-4.399-2.413 6.614c-.64 1.754-.619 3.668.059 5.32.678 1.653 1.957 2.909 3.555 3.492 1.599.584 3.386.446 4.969-.382 1.583-.828 2.832-2.278 3.472-4.032Zm2.413-6.613 2.413-6.614c.639-1.754.618-3.667-.06-5.32-.677-1.653-1.956-2.909-3.555-3.492-1.598-.583-3.386-.446-4.968.382-1.583.828-2.832 2.278-3.472 4.032l-2.413 6.613 12.055 4.399Zm2.413-6.614a7.524 7.524 0 0 0-.325 4.045c.265 1.329.897 2.52 1.816 3.423a5.897 5.897 0 0 0 3.345 1.647c1.262.171 2.566-.067 3.746-.684a7.264 7.264 0 0 0 2.885-2.784 7.68 7.68 0 0 0 1.052-3.947c-.016-1.374-.411-2.689-1.137-3.778a6.021 6.021 0 0 0-2.942-2.336c-1.599-.583-3.386-.446-4.969.382-1.583.828-2.832 2.278-3.471 4.032Z"/>
</svg>
