<svg xmlns="http://www.w3.org/2000/svg" width="225" height="194" fill="none" viewBox="0 0 225 194">
  <rect width="86" height="95.901" x="1.228" y="61.582" fill="#fff" rx="11" transform="rotate(-45.731 1.228 61.582)"/>
  <path stroke="#3F3F3F" stroke-linecap="round" stroke-linejoin="round" stroke-miterlimit="10" stroke-width="3.5" d="m70.07 103.668-7.775 7.977c-3.291 3.376-8.56 3.578-11.767.452L5.808 68.504c-3.208-3.127-3.14-8.399.151-11.775L51.845 9.657c3.291-3.376 8.56-3.578 11.767-.452l44.72 43.593c3.207 3.127 3.14 8.399-.152 11.775L81.99 91.44"/>
  <path stroke="#3F3F3F" stroke-linecap="round" stroke-linejoin="round" stroke-miterlimit="10" stroke-width="3.5" d="m50.527 112.097 11.617 11.324c3.208 3.127 8.476 2.924 11.768-.452l45.885-47.072c3.291-3.376 3.359-8.648.151-11.774l-11.617-11.325"/>
  <rect width="86" height="95.901" x="95.776" y="125.818" fill="#9EC71E" rx="11" transform="rotate(-45.731 95.776 125.818)"/>
  <path stroke="#3F3F3F" stroke-linecap="round" stroke-linejoin="round" stroke-miterlimit="10" stroke-width="3.5" d="m202.749 128.787-45.885 47.072c-3.292 3.376-8.56 3.578-11.768.451l-44.719-43.592c-3.208-3.127-3.14-8.399.151-11.775l45.886-47.072c3.291-3.376 8.559-3.578 11.767-.452l44.72 43.593c3.207 3.127 3.139 8.399-.152 11.775Z"/>
  <path stroke="#3F3F3F" stroke-linecap="round" stroke-linejoin="round" stroke-miterlimit="10" stroke-width="3.5" d="m145.096 176.31 11.617 11.325c3.208 3.126 8.476 2.924 11.767-.452l45.886-47.072c3.291-3.376 3.359-8.648.151-11.775L202.9 117.012"/>
  <path fill="#000" fill-opacity=".63" d="M65.77 63.946c2.834.744 5.47.712 7.718-1.641 1.889-1.977 1.996-4.285.478-5.73-1.819-1.73-3.703-1.046-6.84.123l-1.709.651c-4.92 1.892-9.149 2.235-13.468-1.874-3.98-3.786-4.404-9.394-.333-13.655 2.898-3.034 6.155-4.098 10.73-2.745l-.896 6.24c-2.413-.735-3.898-.463-5.207.907-1.335 1.397-1.196 3.22.092 4.446 1.592 1.514 3.083 1.24 6.025.132l1.707-.653c5.806-2.215 9.964-2.629 14.395 1.587 4.776 4.544 4.17 10.408-.16 14.94-4.233 4.431-9.316 5.06-13.732 3.533l1.2-6.26ZM50.128 81.24c2.194.657 4.096 1.164 5.662-.475 1.498-1.568 1.76-3.205-.892-5.728l-18.04-17.163 4.558-4.771 18.112 17.23c5.494 5.227 5.227 10.503 1.188 14.73-3.65 3.82-7.962 3.942-11.684 2.548l1.096-6.371Zm108.353 20.246c-2.623-2.596-6.899-2.552-9.534.099-2.634 2.651-2.642 6.918-.019 9.514 2.212 2.189 5.602 2.499 8.189.953l.151.149c1.967 1.947 1.961 5.148-.014 7.136l-9.554 9.612a8.488 8.488 0 0 0-2.39 4.784l-4.911-4.859c1.528-2.594 1.188-5.974-1.024-8.163-2.624-2.596-6.9-2.551-9.534.099-2.634 2.651-2.643 6.918-.019 9.514 2.212 2.189 5.602 2.5 8.189.953l9.815 9.712c-1.528 2.594-1.188 5.974 1.024 8.163 2.624 2.596 6.9 2.551 9.534-.099 2.634-2.651 2.643-6.918.019-9.514-2.212-2.189-5.602-2.499-8.189-.953l-.151-.149c-1.967-1.947-1.96-5.148.015-7.136l9.553-9.612c3.292-3.313 3.303-8.647.024-11.892l-.151-.149c1.528-2.594 1.19-5.973-1.023-8.162Z"/>
</svg>
